# xmcd
#
# Track frame offsets:
#	180
#	12967
#	24937
#	37442
#	48605
#	60851
#	74169
#	87389
#	99373
#	112832
#	125221
#	135263
#	146446
#	157632
#	169234
#	181931
#
# Disc length: 2619 seconds
#
# Revision: 1
# Processed by: cddbd v1.5.2PL0 Copyright (c) Steve Scherf et al.
# Submitted via: audiograbber 1.83.01
#
DISCID=d30a3910
DTITLE=Various Artist - Blues Blues Blues CD2
DYEAR=1900
DGENRE=Blues
TTITLE0=Brownie Mc Ghee - Born for but luck
TTITLE1=Brother George and his Sanctified Singers - Twelve Gates to the City
TTITLE2=Brownie Mc Ghee - Jealous of my Woman
TTITLE3=Arthur Big Boy Crudup - Keep your arms around me
TTITLE4=Big Joe Williams - His Spirit lives on
TTITLE5=Big Boy Crudup - She's gone
TTITLE6=Big Bill Broonzy - Big Billy Blues
TTITLE7=Big Joe Turner - Got my discharge papers
TTITLE8=Big Boy Crudup - Hoodoo Lady Blues
TTITLE9=John Lee Hooker - Huckle up Baby
TTITLE10=John Lee Hooker - Hey Boogie
TTITLE11=Big Joe Turner - Story to tell
TTITLE12=B.B.King - She's Dynamite
TTITLE13=Joe Williams - Every Day
TTITLE14=Tiny Grimes - Frankie and Johnny Boogie
TTITLE15=Muddy Waters - Baby please don't go
EXTD=
EXTT0=
EXTT1=
EXTT2=
EXTT3=
EXTT4=
EXTT5=
EXTT6=
EXTT7=
EXTT8=
EXTT9=
EXTT10=
EXTT11=
EXTT12=
EXTT13=
EXTT14=
EXTT15=
PLAYORDER=
